<?xml version="1.0" encoding="UTF-8"?>
<svg fill="none" viewBox="0 0 170 170" xmlns="http://www.w3.org/2000/svg">
<path d="m162.21 157.81-149.69 5.248c-0.5123 0.023-0.9449-0.376-0.9562-0.877l-4.235-116.03c-0.02277-0.5009 0.37568-0.9221 0.88797-0.9335l149.69-5.2481c0.513-0.0228 0.945 0.3756 0.957 0.8766l4.235 116.03c0.022 0.501-0.376 0.922-0.888 0.934z" fill="#E3D3FF"/>
<mask id="d" x="7" y="39" width="157" height="125" style="mask-type:luminance" maskUnits="userSpaceOnUse">
<path d="m162.21 157.81-149.69 5.248c-0.5123 0.023-0.9449-0.376-0.9562-0.877l-4.235-116.03c-0.02277-0.5009 0.37568-0.9221 0.88797-0.9335l149.69-5.2481c0.513-0.0228 0.945 0.3756 0.957 0.8766l4.235 116.03c0.022 0.501-0.376 0.922-0.888 0.934z" fill="#fff"/>
</mask>
<g mask="url(#d)">
<path d="m133.62 217.74c2.63-12.933 1.582-42.145-1.514-55.999-3.108-13.843-3.996-20.139-10.121-27.698-2.151-2.664-3.586-5.772-4.337-9.085-3.153-13.991-15.87-24.453-31.09-24.453-15.221 0-27.823 3.973-30.669 18.363-0.888 4.508-2.9258 15.778-5.0432 19.865-3.3242 6.432-4.2122 5.112-8.2194 23.008s-3.0965 41.529-0.6148 55.395c0.8425 4.736 1.9467 9.016 3.2445 12.921h84.869c1.389-3.7 2.562-7.787 3.484-12.306l0.011-0.011z" fill="#92A09F"/>
<path d="m120.46 157.98c0 17.133-14.492 27.299-33.014 27.299-18.522 0-29.531-9.984-29.531-27.117 0-17.134 8.7886-44.592 27.311-44.592 18.522 0 35.234 27.276 35.234 44.41z" fill="#5B5B5B" opacity=".5"/>
</g>
<path d="m162.21 157.81-149.69 5.248c-0.5123 0.023-0.9449-0.376-0.9562-0.877l-4.235-116.03c-0.02277-0.5009 0.37568-0.9221 0.88797-0.9335l149.69-5.2481c0.513-0.0228 0.945 0.3756 0.957 0.8766l4.235 116.03c0.022 0.501-0.376 0.922-0.888 0.934z" stroke="#00A69B" stroke-miterlimit="10" stroke-width="4.7472"/>
<path d="m152.75 79.86c-4.838-5.2823-10.405 3.8706-10.405 3.8706s-4.679-8.3674-8.845-4.9066c-4.167 3.4608-1.196 8.9366 0.649 11.714 1.844 2.7777 7.183 8.1055 7.183 8.1055s3.153-1.9353 7.81-6.7167c4.451-4.565 7.194-8.1397 3.597-12.067h0.011z" fill="#00A69B"/>
<path d="m93.601 34.96c5.4075-7.2745 13.592 3.5177 13.592 3.5177s4.805-11.145 10.497-7.3314 2.675 11.1 0.705 14.822c-1.969 3.7227-7.991 11.134-7.991 11.134s-4.224-2.0264-10.701-7.4339c-6.193-5.1684-10.109-9.3123-6.0905-14.72l-0.0114 0.0114z" fill="#00A69B"/>
<path d="m156.1 8.846c-6.25-7.6843-14.674 4.4967-14.674 4.4967s-5.783-11.931-11.817-7.5021c-6.034 4.4398-2.379 12.249-0.057 16.222 2.334 3.9845 9.255 11.771 9.255 11.771s4.52-2.4249 11.339-8.6406c6.512-5.9426 10.599-10.656 5.954-16.37v0.02276z" fill="#00A69B"/>
<path d="m55.167 117.96-1.2636 7.388s10.747 11.851 33.401 12.159c20.366 0.273 30.885-12.466 30.885-12.466l-1.582-6.022-61.441-1.059z" fill="#C9E94F"/>
<path d="m128.2 97.688c0 11.611-7.798 20.093-16.826 26.297-7.24 4.986-14.674 8.891-23.998 8.891s-16.78-3.324-24.351-7.935c-9.9953-6.09-18.568-14.97-18.568-26.878 0-5.6352 2.6525-14.412 4.8383-19.228 5.4758-12.044 21.824-21.562 38.069-21.778 7.4111-0.1025 13.923 3.6543 20.002 5.5668 6.25 1.9695 10.815 6.5459 13.843 12.978 2.3 4.8952 6.979 16.302 6.979 22.063l0.011 0.0227z" fill="#92A09F"/>
<mask id="c" x="44" y="57" width="85" height="76" style="mask-type:luminance" maskUnits="userSpaceOnUse">
<path d="m128.2 97.688c0 11.612-7.798 20.093-16.826 26.297-7.24 4.987-14.674 8.891-23.998 8.891-9.3237 0-16.78-3.324-24.351-7.934-9.9953-6.091-18.568-14.971-18.568-26.878 0-5.6351 2.6525-14.412 4.8383-19.228 5.4758-12.044 21.823-21.562 38.069-21.778 7.4111-0.1024 13.923 3.6543 20.002 5.5669 6.25 1.9694 10.815 6.5459 13.843 12.978 2.3 4.8952 6.979 16.302 6.979 22.062l0.011 0.0228z" fill="#fff"/>
</mask>
<g fill="#5B5B5B" mask="url(#c)">
<path d="m81.42 55.953s-1.0587 5.4303 0.148 12.261c0.2504 1.4116 2.5956 4.178 4.0186 5.749 0.5464 0.6034 1.5027 0.5237 1.9353-0.1594 0.8993-1.4002 2.2313-3.6429 2.7777-5.2708 0.8539-2.5501 1.2637-13.445 1.2637-13.445l-10.143 0.8766v-0.0114z"/>
<path d="m94.591 50.466s4.4398 13.331 3.142 16.86-0.387 2.3565-0.387 2.3565 4.3149-3.6657 3.7909-7.32c-0.524-3.6544-1.1726-12.682-1.1726-12.682l-5.3619 0.7855h-0.0114z"/>
<path d="m39.844 95.695s9.0276-5.6465 12.386-6.9785c3.1534-1.2523 4.5423-2.0378 4.713-2.3679 0.3985-0.7741-4.3601-0.2277-7.5932 1.5141s-11.316 5.7604-11.316 5.7604l1.8101 2.0833v-0.0114z"/>
<path d="m40.083 108.1s7.1151-7.537 10.496-9.3923c3.7795-2.0719 7.0809-4.0755 6.6028-4.7244s-6.3979 0.0455-9.4716 2.1175c-3.0738 2.0719-10.974 6.5002-10.974 6.5002l3.347 5.487v0.012z"/>
<path d="m132.28 97.95s-8.458-6.1589-11.976-7.5136-5.51-2.0264-5.51-2.163c0-0.8538 5.089-0.6489 8.288 1.1498 5.168 2.903 3.312 1.8556 11.259 5.8856l-2.061 2.6412z"/>
<path d="m129.9 109.5s-7.115-7.536-10.496-9.392c-3.78-2.0717-6.956-4.1892-6.603-4.7242 0.353-0.5351 6.398 0.0455 9.472 2.1174 3.073 2.0719 10.974 6.5008 10.974 6.5008l-3.347 5.487v0.011z"/>
<path d="m78.289 49.646s-4.9977 13.331-3.5291 16.86c1.4685 3.5291 0.444 2.3566 0.444 2.3566s-4.8611-3.6658-4.2691-7.3201c0.592-3.6657 1.3206-12.682 1.3206-12.682l6.0336 0.7856z"/>
</g>
<path d="m62.965 64.048-22.757-11.464c-0.8994-0.387-1.6394-1.0701-2.5956-0.8652l-0.2619 0.592 10.849 29.485c1.6051 1.5711 9.9725-11.407 11.817-12.682l0.2277-0.1594c3.0624-2.1061 6.1247-3.4608 2.7095-4.918l0.0113 0.0114z" fill="#92A09F"/>
<path d="m103.18 63.785c0.068 0.444 15.448-4.7472 17.418-5.7831 2.288-1.2068 13.353-5.5897 14.993-4.8497 1.639 0.74 0.273 4.1211-0.399 5.8059-0.205 0.5123-0.375 1.036-0.546 1.5711-0.49 1.5027-1.662 4.5992-3.962 8.5039-3.278 5.5669-6.227 18.67-6.227 18.67l-21.288-23.907 0.011-0.0114z" fill="#92A09F"/>
<path d="m100.33 117.5c0.239 0 0.467 0.045 0.683 0.136 0.991 0.41 6.649 1.583 9.517-2.926 3.439-5.407 1.014-12.921-4.576-14.105-4.212-0.8875-9.5057 1.822-12.124 0.831-3.1648-1.183-4.918-7.0463-3.2786-11.794 0.5464-1.5938 4.8724-6.0223 7.3314-9.0846 0.8766-1.0929 0.0911-2.6981-1.3092-2.6867l-21.858 0.1253c-1.3548 0-2.1289 1.5482-1.3206 2.6411 2.8005 3.7681 7.5136 10.508 7.1607 12.932-0.3871 2.7094-2.5046 5.5213-3.3812 6.591-0.239 0.296-2.3109 1.025-2.6752 1.105-2.1858 0.501-7.081-3.1195-12.477 0.899-2.7891 2.072-2.9485 7.73-1.7759 10.895 1.6393 4.417 6.2271 5.236 10.974 5.077 4.3943-0.148 25.945-0.581 29.087-0.649l0.022 0.012z" fill="url(#b)"/>
<path d="m107.25 112.8c-0.74 9.562-10.246 15.072-21.675 14.947s-20.15-7.468-21.106-14.936h42.782v-0.011z" fill="#E4EAEA"/>
<path d="m49.35 77.777c-2.7778-7.5136-5.897-15.038-9.5172-22.575-0.1138-0.2505 0.2049-0.4782 0.3985-0.2846 6.6256 4.0983 12.192 8.8682 16.496 14.458 0.2619 0.2504 0.2846 0.6489 0.0456 0.9221-2.4249 1.2181-4.5195 3.8251-6.3069 7.6274-0.3187 0.3757-0.9221 0.296-1.127-0.1594l0.0114 0.0114z" fill="#E5EBEB"/>
<path d="m122.93 82.183c0.08-1.6507 2.653-9.927 5.191-14.025 2.539-4.0983 5.909-9.8929 4.497-11.225-1.275-1.2068-7.525 2.1629-11.111 3.5632-6.637 2.5956-11.589 4.9521-11.589 4.9521 5.419 3.643 9.688 9.3578 13.012 16.746v-0.0114z" fill="#E5EBEB"/>
<path d="m77.788 102.94s0.2619-3.6887 1.1498-5.2939c1.0132-1.8214 2.1403-4.3146 6.1361-4.2804 2.8119 0.0227 4.326 1.127 5.5896 3.7795 1.332 2.7891 2.163 4.8378 2.0378 5.0778-1.0929 2.06-8.2194 3.859-8.2194 3.859l-6.6939-3.142z" fill="url(#a)"/>
<path d="m96.071 108c10.883-1.992 31.784-5.999 41.689-1.206-1.571-0.797-3.302-1.196-5.021-1.458-12.192-1.275-24.499 1.412-36.361 3.996-0.8766 0.228-1.2181-1.138-0.3074-1.332z" fill="#000"/>
<path d="m95.889 112.35c3.6657 0.467 7.2863 1.127 10.86 2.004 3.484 0.979 7.286 1.878 10.007 4.394-2.801-2.425-6.592-3.188-10.086-4.053-3.575-0.763-7.218-1.309-10.85-1.65-0.4667-0.035-0.3984-0.775 0.0683-0.706v0.011z" fill="#000"/>
<path d="m106.06 110.35c3.665 0.467 7.285 1.127 10.86 2.004 3.484 0.979 7.286 1.878 10.007 4.394-2.801-2.425-6.592-3.188-10.087-4.053-3.574-0.763-7.217-1.309-10.849-1.651-0.467-0.034-0.398-0.774 0.069-0.705v0.011z" fill="#000"/>
<path d="m73.998 109.6c-10.758-2.334-31.363-6.99-41.382-2.539 1.5369-0.854 3.2673-1.309 4.9977-1.628 5.214-0.888 10.553-0.626 15.801-0.239 7.0127 0.592 13.98 1.662 20.89 3.062 0.888 0.182 0.592 1.56-0.3074 1.332v0.012z" fill="#000"/>
<path d="m74.566 113.32c-5.4417 0.558-10.929 1.354-16.143 3.108-1.719 0.603-3.438 1.343-4.8041 2.595 2.7322-2.516 6.5231-3.415 10.007-4.394 3.5746-0.888 7.1948-1.548 10.86-2.004 0.4667-0.068 0.5464 0.672 0.0683 0.706l0.0114-0.011z" fill="#000"/>
<path d="m64.389 111.33c-5.4416 0.557-10.929 1.354-16.143 3.107-1.719 0.604-3.4381 1.344-4.8042 2.596 2.7322-2.516 6.5232-3.415 10.007-4.394 3.5747-0.888 7.1948-1.548 10.86-2.004 0.4668-0.068 0.5465 0.672 0.0683 0.706l0.0114-0.011z" fill="#000"/>
<path d="m78.449 102.1 13.912-0.159c0.6603 0.023 1.0474 1.526 0.4895 1.89l-1.0473 0.694c-0.9563 0.638-1.7646 1.469-2.3679 2.448l-3.3811 5.498c-0.2619 0.433-0.888 0.433-1.1498 0l-3.6316-5.714s-0.0569-0.069-0.0797-0.103l-3.2558-3.404c-0.4213-0.444-0.0911-1.172 0.5122-1.15z" fill="#000"/>
<path d="m100.44 80.907c3.951-0.8424 6.33 0.2163 8.037 2.2882" stroke="#5B5B5B" stroke-linecap="round" stroke-miterlimit="10" stroke-width="1.4686"/>
<path d="m61.805 83.731c2.0605-2.5045 4.8041-3.4494 8.0486-2.994" stroke="#5B5B5B" stroke-linecap="round" stroke-miterlimit="10" stroke-width="1.4686"/>
<path d="m100.48 94.922c1.917 0 3.472-1.5545 3.472-3.4721 0-1.9177-1.555-3.4722-3.472-3.4722-1.9179 0-3.4724 1.5545-3.4724 3.4722 0 1.9176 1.5545 3.4721 3.4724 3.4721z" fill="#000"/>
<path d="m69.444 95.07c1.9994 0 3.6202-1.6208 3.6202-3.6202 0-1.9993-1.6208-3.6202-3.6202-3.6202s-3.6202 1.6209-3.6202 3.6202c0 1.9994 1.6208 3.6202 3.6202 3.6202z" fill="#000"/>
<path d="m85.553 111.61s0.0228 7.433 6.4434 8.048c5.9881 0.569 7.5819-4.462 7.5819-4.462" stroke="#000" stroke-linecap="round" stroke-miterlimit="10" stroke-width="1.3433"/>
<path d="m85.575 111.83s0.7172 6.831-5.6579 7.878c-6.3751 1.048-6.8305-4.041-6.8305-4.041" stroke="#000" stroke-linecap="round" stroke-miterlimit="10" stroke-width="1.3433"/>
<defs>
<linearGradient id="b" x1="85.859" x2="85.859" y1="118.17" y2="77.891" gradientUnits="userSpaceOnUse">
<stop stop-color="#E4EAEA" offset="0"/>
<stop stop-color="#E2E8E8" offset=".46"/>
<stop stop-color="#DBE2E2" offset=".63"/>
<stop stop-color="#CFD7D7" offset=".76"/>
<stop stop-color="#BEC8C7" offset=".85"/>
<stop stop-color="#A8B4B3" offset=".94"/>
<stop stop-color="#92A09F" offset="1"/>
</linearGradient>
<linearGradient id="a" x1="85.245" x2="85.245" y1="106.08" y2="93.362" gradientUnits="userSpaceOnUse">
<stop stop-color="#92A09F" offset="0"/>
<stop stop-color="#E4EAEA" offset="1"/>
</linearGradient>
</defs>
</svg>
