<?xml version="1.0" encoding="UTF-8"?>
<svg fill="none" viewBox="0 0 243 170" xmlns="http://www.w3.org/2000/svg">
<g clip-path="url(#a)">
<path d="m104.57 65.021-0.542-12.453c-0.135-3.1807 2.759-5.7723 6.246-5.604l40.949 2.0363 41.405 0.3534c3.047 0.0336 5.569 2.154 5.84 4.914l-0.592 11.41c0.304 3.1638-2.421 5.8732-5.908 5.8732l-46.416-0.9424-35.125-0.4039c-3.149-0.0336-5.722-2.3223-5.84-5.1832h-0.017z" fill="#C9E94F"/>
<path d="m44.631 129.49h-0.1354-0.1355-0.1354-0.1354-0.1354-0.1354-0.1355-0.1354-0.1354-0.1354-0.1355-0.1354-0.1354-0.1354-0.1354-0.1355-0.1354-0.1354-0.1354-0.1355-0.1354-0.1354-0.1354-0.1354-0.1355-0.1354-0.1354-0.1354-0.1355-0.1354-0.1354-0.1354-0.1354-0.1355-0.1354-0.1354-0.1354-0.1355-0.1354-0.1354-0.1354-0.1354-0.1355-0.1354-0.1354-0.1354-0.1355-0.1354-0.1354-0.1354-0.1354-0.1355-0.1354-0.1354-0.1354-0.1355-0.1354-0.1354-0.1354-0.1354-0.1355-0.1354-0.1354-0.1354-0.1355-0.1354-0.1354-0.1354-0.1354-0.1355-0.1354-0.1354-0.1354-0.1355-0.1354-0.1354-0.1354-0.1354-0.1355-0.1354-0.1354-0.1354c-6.6188 0-12.002 8.835-12.002 19.74s5.3661 19.74 12.002 19.74h0.1354 0.1354 0.1354 0.1355 0.1354 0.1354 0.1354 0.1354 0.1355 0.1354 0.1354 0.1354 0.1355 0.1354 0.1354 0.1354 0.1354 0.1355 0.1354 0.1354 0.1354 0.1355 0.1354 0.1354 0.1354 0.1354 0.1355 0.1354 0.1354 0.1354 0.1355 0.1354 0.1354 0.1354 0.1354 0.1355 0.1354 0.1354 0.1354 0.1355 0.1354 0.1354 0.1354 0.1354 0.1355 0.1354 0.1354 0.1354 0.1355 0.1354 0.1354 0.1354 0.1354 0.1355 0.1354 0.1354 0.1354 0.1355 0.1354 0.1354 0.1354 0.1354 0.1355 0.1354 0.1354 0.1354 0.1355 0.1354 0.1354 0.1354 0.1354 0.1355 0.1354 0.1354 0.1354 0.1355 0.1354 0.1354 0.1354 0.1354 0.1355 0.1354c6.6188 0 12.002-8.835 12.002-19.74s-5.3661-19.74-12.002-19.74z" fill="#0B343A"/>
<path d="m152.6 129.49h-0.136-0.135-0.136-0.135-0.135-0.136-0.135-0.136-0.135-0.136-0.135-0.135-0.136-0.135-0.136-0.135-0.136-0.135-0.135-0.136-0.135-0.136-0.135-0.136-0.135-0.135-0.136-0.135-0.136-0.135-0.135-0.136-0.135-0.136-0.135-0.136-0.135-0.135-0.136-0.135-0.136-0.135-0.136-0.135-0.135-0.136-0.135-0.136-0.135-0.135-0.136-0.135-0.136-0.135-0.136-0.135-0.135-0.136-0.135-0.136-0.135-0.136-0.135-0.135-0.136-0.135-0.136-0.135-0.136-0.135-0.135-0.136-0.135-0.136-0.135-0.135-0.136-0.135-0.136-0.135-0.136-0.135c-6.619 0-12.002 8.835-12.002 19.74s5.366 19.74 12.002 19.74h0.135 0.136 0.135 0.136 0.135 0.136 0.135 0.135 0.136 0.135 0.136 0.135 0.135 0.136 0.135 0.136 0.135 0.136 0.135 0.135 0.136 0.135 0.136 0.135 0.136 0.135 0.135 0.136 0.135 0.136 0.135 0.136 0.135 0.135 0.136 0.135 0.136 0.135 0.135 0.136 0.135 0.136 0.135 0.136 0.135 0.135 0.136 0.135 0.136 0.135 0.136 0.135 0.135 0.136 0.135 0.136 0.135 0.135 0.136 0.135 0.136 0.135 0.136 0.135 0.135 0.136 0.135 0.136 0.135 0.136 0.135 0.135 0.136 0.135 0.136 0.135 0.136 0.135 0.135 0.136 0.135 0.136c6.618 0 12.001-8.835 12.001-19.74s-5.366-19.74-12.001-19.74z" fill="#191523"/>
<path d="m164.6 149.23c0 10.905-5.366 19.74-12.001 19.74-6.636 0-12.002-8.835-12.002-19.74s5.366-19.74 12.002-19.74c6.635 0 12.001 8.835 12.001 19.74z" fill="#191523"/>
<path d="m56.632 149.23c0 10.905-5.3661 19.74-12.002 19.74-6.6356 0-12.002-8.835-12.002-19.74s5.3662-19.74 12.002-19.74c6.6357 0 12.002 8.835 12.002 19.74z" fill="#191523"/>
<path d="m5.2397 147.92c-0.32163-0.471 0.64326-22.012 5.7385-26.909 5.0953-4.914 29.624-12.184 31.689-13.935 2.0652-1.75 16.081-24.704 33.754-32.462 17.673-7.758 57.182-15.802 128.89-3.0628 0 0-64.698 73.828-65.815 74.467-1.117 0.64-14.812 8.398-15.286 8.23-0.474-0.152-86.789-1.582-87.754-1.111-0.9479 0.471-31.215-5.217-31.215-5.217z" fill="#00A69B"/>
<path d="m90.336 148.49c-0.4739 0.151-1.2018-17.267 1.7436-22.164 4.7736-7.909 23.411-16.307 23.242-15.836-0.153 0.472 10.36-35.172 31.384-40.557s50.411-0.1347 58.045 1.5987c7.652 1.7334 24.427 28.188 28.574 38.79 4.148 10.602 5.891 26.118 5.096 32.463-0.796 6.327-38.697 10.77-39.341 10.922-0.643 0.151-100.48-1.262-101.13-1.431-0.6432-0.151-7.6513-3.803-7.6513-3.803l0.0338 0.017z" fill="#0B343A"/>
<path d="m201.92 157.26h-75.972c-1.371 0-2.505-1.565-2.59-3.585l-0.169-3.753c-0.102-2.221 1.083-4.106 2.59-4.106h75.701c1.27 0 2.353 1.346 2.573 3.181l0.44 3.753c0.085 0.791 0 1.598-0.22 2.322-0.44 1.329-1.354 2.188-2.353 2.188z" fill="#00A69B"/>
<path d="m231.6 157.26h7.634c1.676 0 3.183-5.2 3.352-9.003 0.153-3.804-0.711-6.412-1.439-7.287-0.711-0.875-10.038-0.084-10.038-0.084l0.491 16.357v0.017z" fill="#00A69B"/>
<path d="m156.74 117.36c-1.743 0.488-1.168 2.423-0.22 2.524s6.585 0.32 7.956 0.101c1.389-0.219 1.27-2.003 0.221-2.423-1.067-0.421-6.484-0.64-7.957-0.219v0.017z" fill="#A57C20"/>
<path d="m194.83 117.36c-1.744 0.488-1.168 2.423-0.22 2.524s6.585 0.32 7.956 0.101 1.27-2.003 0.22-2.423c-1.066-0.421-6.483-0.64-7.956-0.219v0.017z" fill="#A57C20"/>
<path d="m122.13 109.55c0.694 0.909 40.88 0.101 42.15-0.101 1.27-0.218-0.423-30.51-0.948-31.672-0.525-1.1611-9.869-2.844-23.039 4.7458-12.932 7.472-19.754 24.907-18.163 27.027z" fill="#ADE0E1"/>
<path d="m169.08 77.357c-0.982 0.3702 1.202 9.6261 1.405 16.492 0.22 6.866 1.033 14.759 1.253 15.18 0.22 0.42 31.739 0.319 33.026 0 1.269-0.32-6.585-26.708-7.652-28.492-1.066-1.8007-25.273-4.224-28.032-3.1638v-0.0168z" fill="#ADE0E1"/>
<path d="m201.43 81.042s7.753 19.841 7.855 27.75c0 0 9.987 0.96 12.103-1.262 2.116-2.221-0.948-8.8686-4.57-14.876-3.606-6.0079-15.083-14.136-15.388-11.612z" fill="#ADE0E1"/>
<path d="m9.6582 119.11c-6.9912 3.736-5.5862 10.754-4.1642 12.487 3.3517 4.073 12.002 3.837 15.167 2.743 3.1824-1.094 4.909-3.601 5.0444-5.755 0.5925-9.744-11.714-11.814-16.064-9.475h0.01693z" fill="#EAF5FC"/>
<path d="m83.022 117.22c15.861 0 13.102 14.271 6.7373 17.115-2.0483 0.926-9.9705 1.313-13.153 0.219s-4.8752-2.238-5.6708-4.241c-1.5912-3.955-0.2709-13.093 12.086-13.093z" fill="#EAF5FC"/>
<path d="m14.686 140.41c0 1.666-1.3542 3.012-3.0301 3.012-1.6758 0-3.03-1.346-3.03-3.012s1.3542-3.012 3.03-3.012c1.6759 0 3.0301 1.346 3.0301 3.012z" fill="#C9E94F"/>
<path d="m87.34 140.41c0 1.666-1.3542 3.012-3.0301 3.012s-3.0301-1.346-3.0301-3.012 1.3542-3.012 3.0301-3.012 3.0301 1.346 3.0301 3.012z" fill="#C9E94F"/>
<path d="m129.68 76.599s-17.842 26.438-19.111 32.294c0 0-60.67-0.471-61.956-0.471s-0.1523-3.012 1.5912-5.537c1.7436-2.541 20.923-21.406 26.441-24.216 5.8909-3.0124 53.035-2.0531 53.035-2.0531v-0.0169z" fill="#E8FAE9"/>
<path d="m96.904 155.51c-0.0169 0.976-0.8294 1.75-1.8282 1.75h-90.851c-3.2332 0-4.0457-11.612 0.64326-11.612h90.411c1.0326 0 1.8451 0.825 1.8282 1.835l-0.1862 8.027h-0.017z" fill="#C9E94F"/>
<path d="m197.3 80.521c-1.066-1.8006-25.273-4.224-28.032-3.1638-0.102 0.0337-0.17 0.1851-0.22 0.4376 5.67-0.4208 25.848 1.7333 26.813 3.3657 0.982 1.6492 7.719 24.15 7.787 27.953 0.711-0.034 1.168-0.051 1.303-0.084 1.27-0.32-6.584-26.708-7.651-28.491v-0.0169z" fill="#191523"/>
<path d="m216.84 92.654c-3.606-6.0079-15.083-14.136-15.388-11.612 0 0 0.034 0.0842 0.085 0.2188 2.742 0.3197 11.494 6.9503 14.558 12.066 3.47 5.7723 6.433 12.133 4.791 14.59 0.203-0.118 0.372-0.252 0.507-0.387 2.116-2.221-0.948-8.8686-4.57-14.876h0.017z" fill="#191523"/>
<path d="m51.233 103.84c1.7436-2.541 20.923-21.406 26.441-24.217 5.2138-2.6589 42.691-2.2213 51.274-2.0867 0.457-0.69 0.728-1.0771 0.728-1.0771s-47.144-0.9424-53.035 2.0532c-5.5185 2.8104-24.681 21.692-26.441 24.216-1.7436 2.525-2.8608 5.537-1.5912 5.537h0.5248c0.1692-1.111 1.0156-2.861 2.099-4.443v0.017z" fill="#0B343A"/>
<path d="m170.12 140.38c-0.067-2.457-0.152-4.931-0.254-7.388-0.186-4.88-0.406-9.744-0.66-14.624-0.491-9.744-1.1-19.488-1.71-29.215-0.169-2.7262-0.338-5.4525-0.524-8.1788-0.187-2.7262-0.373-5.4525-0.661-8.1619-0.016-0.1683-0.27-0.1852-0.27 0 0.034 2.4401 0.186 4.8971 0.304 7.3373 0.136 2.457 0.288 4.8972 0.44 7.3542 0.305 4.8635 0.593 9.7439 0.881 14.607 0.575 9.744 1.083 19.471 1.472 29.232 0.102 2.726 0.204 5.469 0.288 8.212 0.085 2.743 0.034 2.996 0.169 5.722 0.017 0.404 0.627 0.404 0.644 0 0.017-2.457-0.034-2.44-0.102-4.914l-0.017 0.017z" fill="#191523"/>
<path d="m210.56 125.67c-0.135-0.892-0.271-1.801-0.406-2.692-0.271-1.767-0.559-3.518-0.863-5.285-0.61-3.534-1.287-7.051-2.015-10.568-0.745-3.534-1.54-7.035-2.387-10.535-0.846-3.4835-1.777-6.9503-2.759-10.4-0.948-3.2984-1.828-6.6978-3.352-9.7943-0.186-0.3871-0.406-0.7405-0.626-1.1107-0.068-0.1178-0.237 0-0.169 0.1009 1.422 3.1639 2.37 6.4791 3.301 9.8112 0.948 3.4331 1.862 6.883 2.691 10.367 0.83 3.4667 1.642 6.9505 2.37 10.434 0.728 3.501 1.422 7.001 2.031 10.501 0.627 3.518 1.185 7.035 1.693 10.569 0.034 0.219 0.068 0.438 0.102 0.656 0.034 0.219 0.118 0.421 0.186 0.64 0.085 0.269 0.474 0.219 0.491-0.068 0.034-0.875-0.152-1.767-0.271-2.642l-0.017 0.017z" fill="#191523"/>
<path d="m120.94 111.65c0-0.101-0.169-0.135-0.186-0.017-0.22 1.262-0.322 2.525-0.44 3.804-0.119 1.295-0.237 2.574-0.339 3.87-0.203 2.575-0.372 5.15-0.558 7.741-0.051 0.724-0.102 1.431-0.153 2.154-0.034 0.371-0.05 0.741-0.084 1.111 0 0.168-0.017 0.337-0.034 0.522v0.219c-0.153 0.084-0.119 0.269 0 0.387 0.22 0.218 0.558 0.05 0.643-0.202 0.085-0.286 0.068-0.64 0.085-0.943 0.034-0.37 0.051-0.74 0.084-1.11 0.102-1.397 0.203-2.811 0.305-4.208 0.203-2.827 0.423-5.671 0.559-8.515 0.067-1.599 0.22-3.214 0.152-4.813h-0.034z" fill="#191523"/>
<path d="m91.606 125.12c-0.2201-0.942-0.7448-1.767-1.6589-2.389-1.9975-1.347-4.6552-0.741-5.8909 1.279-1.3712 2.204-0.4232 5.116 1.9805 6.092 3.284 1.329 6.3818-1.616 5.5693-4.982z" fill="#fff"/>
<path d="m14.415 125.76c-0.0677-0.286-0.1693-0.555-0.3216-0.824-1.6589-3.198-6.8558-2.626-7.7868 0.841-0.55861 2.019 0.71097 4.375 2.7084 5.049 3.064 1.043 6.1279-2.121 5.4-5.049v-0.017z" fill="#fff"/>
<path d="m79.587 128.52c-0.017-0.084-0.0508-0.185-0.0847-0.27-0.7109-1.901-3.4871-2.086-4.5366-0.387-0.948 1.549 0.0508 3.635 1.862 3.837 1.7436 0.202 3.1486-1.565 2.7593-3.197v0.017z" fill="#fff"/>
<path d="m22.776 128.85c-0.1523-0.724-0.6263-1.347-1.4389-1.616-1.8959-0.639-4.0457 1.077-3.4024 3.063 0.3893 1.212 1.7943 1.986 3.03 1.683 1.405-0.337 2.0652-1.868 1.7944-3.13h0.0169z" fill="#fff"/>
<path d="m136.82 104.33c2.658 1.363 2.98 6.664 1.592 8.112-1.388 1.43-9.598 1.784-12.256 0.908-2.658-0.875-3.267-8.498-0.982-9.76 2.268-1.262 8.786-0.741 11.663 0.74h-0.017z" fill="#191523"/>
<path d="m134.7 104.75c-0.592-0.303-1.287-0.32-1.947-0.387-0.575-0.051-1.168-0.101-1.76-0.101-0.559 0-1.134 0.084-1.693 0.151-0.576 0.068-1.32 0.068-1.811 0.421-0.339 0.252-0.423 0.791 0 1.027 0.525 0.286 1.168 0.235 1.743 0.286 0.593 0.05 1.134 0.151 1.71 0.202 0.559 0.05 1.134 0.084 1.693 0.151 0.169 0.017 0.051 0 0.237 0.034 0.135 0.017 0.254 0.033 0.389 0.05 0.423 0.068 0.796 0.101 1.219 0.034 0.88-0.152 0.999-1.498 0.254-1.885l-0.034 0.017z" fill="#C9E94F"/>
<path d="m137.46 106.35c-0.017-0.084-0.068-0.151-0.136-0.218l-0.051-0.051c-0.067-0.084-0.186-0.134-0.287-0.168-0.051 0-0.102-0.034-0.153-0.051-0.067-0.016-0.118-0.05-0.203-0.033h-0.068-0.118-0.152c-0.068 0.017-0.136 0.05-0.187 0.101-0.101 0.101-0.135 0.252-0.101 0.404 0 0.05 0.017 0.084 0.034 0.134 0.017 0.068 0.05 0.118 0.084 0.185 0.051 0.101 0.153 0.186 0.254 0.236 0.085 0.05 0.186 0.101 0.288 0.118 0.051 0 0.135 0.033 0.186 0.033 0.119 0 0.203-0.033 0.305-0.084 0.017 0 0.034-0.017 0.068-0.033 0.067-0.051 0.135-0.101 0.186-0.185 0.034-0.051 0.051-0.118 0.068-0.186v-0.202h-0.017z" fill="#C9E94F"/>
<path d="m115.96 169.22s-8.396 2.474-14.27-2.693l4.452-35.559s12.763-2.003 16.352 3.214l-6.534 35.038z" clip-rule="evenodd" fill="#0B343A" fill-rule="evenodd"/>
<path d="m94.958 149.92c-0.0508 10.484 5.6541 18.882 12.73 18.731 7.075-0.152 13.406-8.869 14.151-19.471 0.745-10.619-4.943-19-12.73-18.731-7.769 0.269-14.117 8.987-14.151 19.471z" clip-rule="evenodd" fill="#0B343A" fill-rule="evenodd"/>
<path d="m103.73 151.35c-0.271 10.046 4.875 18.074 11.477 17.939s12.679-8.465 13.559-18.613c0.88-10.147-4.249-18.175-11.477-17.939s-13.288 8.583-13.559 18.613z" clip-rule="evenodd" fill="#0B343A" fill-rule="evenodd"/>
<path d="m106.26 151.25c-0.22 8.566 4.165 15.416 9.785 15.298 5.637-0.118 10.8-7.22 11.561-15.87 0.762-8.65-3.622-15.499-9.784-15.297s-11.342 7.32-11.562 15.869z" clip-rule="evenodd" fill="#00A69B" fill-rule="evenodd"/>
<path d="m114.08 151.13c-0.068 1.65 0.711 2.962 1.743 2.945 1.033-0.033 1.964-1.38 2.049-3.046 0.101-1.649-0.694-2.962-1.744-2.945-1.066 0.034-1.981 1.397-2.048 3.046z" clip-rule="evenodd" fill="#CCC6C7" fill-rule="evenodd"/>
<path d="m114.14 126.18c-9.666 0-19.704 10.871-19.704 22.937 0 2.828 0.4401 5.537 1.2188 8.028h3.3009c-0.5248-1.851-0.8125-3.837-0.8125-5.89 0-9.828 8.447-19.707 16.335-19.858 10.174-0.185 13.932 10.013 13.932 19.858 0 2.07-0.474 4.156-0.999 6.008h2.624c0.796-2.474 1.134-5.285 1.134-8.129 0-12.066-7.364-22.937-17.046-22.937l0.017-0.017z" fill="#191523"/>
<path d="m219.83 169.22s-8.396 2.474-14.27-2.692l4.452-35.56s6.772-2.524 14.728 2.356l-4.91 35.896z" clip-rule="evenodd" fill="#0B343A" fill-rule="evenodd"/>
<path d="m198.83 149.92c-0.051 10.484 5.654 18.882 12.729 18.731 7.076-0.152 13.407-8.869 14.152-19.471 0.745-10.619-4.943-19-12.73-18.731-7.77 0.269-14.117 8.987-14.151 19.471z" clip-rule="evenodd" fill="#0B343A" fill-rule="evenodd"/>
<path d="m207.6 151.35c-0.271 10.046 4.876 18.074 11.477 17.939 6.602-0.135 12.679-8.465 13.56-18.613 0.88-10.147-4.249-18.175-11.478-17.939-7.228 0.236-13.288 8.583-13.559 18.613z" clip-rule="evenodd" fill="#0B343A" fill-rule="evenodd"/>
<path d="m210.13 151.25c-0.22 8.566 4.164 15.416 9.784 15.298 5.637-0.118 10.8-7.22 11.562-15.87s-3.623-15.499-9.784-15.297c-6.162 0.202-11.342 7.32-11.562 15.869z" clip-rule="evenodd" fill="#00A69B" fill-rule="evenodd"/>
<path d="m217.68 150.6c-0.068 1.649 0.711 2.962 1.744 2.945 1.032-0.034 1.963-1.38 2.048-3.046 0.101-1.649-0.694-2.962-1.744-2.945-1.066 0.034-1.98 1.397-2.048 3.046z" clip-rule="evenodd" fill="#CCC6C7" fill-rule="evenodd"/>
<path d="m218 126.18c-9.666 0-19.704 10.871-19.704 22.937 0 2.828 0.44 5.537 1.219 8.028h3.301c-0.525-1.851-0.812-3.837-0.812-5.89 0-9.828 8.446-19.707 16.335-19.858 10.173-0.185 13.931 10.013 13.931 19.858 0 2.07-0.169 4.055-0.694 5.89h2.353c0.796-2.491 1.118-5.184 1.118-8.028 0-12.066-7.364-22.937-17.047-22.937z" fill="#191523"/>
<path d="m32.222 126.58h30.098" stroke="#0B343A" stroke-linecap="round" stroke-miterlimit="10" stroke-width="3.3856"/>
<path d="m31.951 133.26h30.114" stroke="#0B343A" stroke-linecap="round" stroke-miterlimit="10" stroke-width="3.3856"/>
<path d="m31.951 140.21h30.114" stroke="#0B343A" stroke-linecap="round" stroke-miterlimit="10" stroke-width="3.3856"/>
<path d="m104.59 64.465-0.508-12.453c-0.136-3.1806 2.573-5.7722 5.823-5.604l38.206 2.0363 37.072 1.0266c2.844 0.0336 4.994 1.5482 5.248 4.3082l1.218 11.343c0.288 3.1638 6.636 5.0149 3.386 5.0149l-52.205-0.0673-32.773-0.4039c-2.945-0.0336-5.332-2.3223-5.45-5.1832l-0.017-0.0169z" fill="#C9E94F"/>
<path d="m114.56 45.432-0.423-7.8591c-0.102-2.0026 2.167-3.6518 4.892-3.534l32.45 0.7741 32.282 0.3534c2.387 0.0168 4.367 1.3632 4.57 3.1133l-0.186 7.9096c0.237 1.9858-1.405 3.5508-4.13 3.5508l-37.309-0.7741-27.559-0.2524c-2.471-0.0168-4.485-1.4641-4.587-3.2648v-0.0168z" fill="#E3D3FF"/>
<path d="m120.03 32.12-0.373-6.7652c-0.101-1.7334 1.862-3.147 4.215-3.046l27.965 0.6731 27.812 0.303c2.066 0.0168 3.758 1.178 3.945 2.6757l-0.17 6.8157c0.203 1.7165-1.218 3.0628-3.571 3.0628l-32.146-0.6731-23.75-0.2188c-2.133-0.0168-3.86-1.2621-3.944-2.8104l0.017-0.0168z" fill="#0B343A"/>
<path d="m123.7 20.575-0.27-5.2843c-0.068-1.3463 1.388-2.457 3.148-2.3728l20.838 0.5217 20.737 0.2356c1.54 0 2.81 0.9087 2.945 2.0867l-0.118 5.3179c0.152 1.3463-0.897 2.3897-2.658 2.3897l-23.97-0.5217-17.706-0.1683c-1.591 0-2.878-0.976-2.946-2.2045z" fill="#C9E94F"/>
<path d="m129.12 10.209-0.237-5.2506c-0.068-1.3463 1.185-2.4402 2.675-2.356l17.774 0.52169 17.689 0.23561c1.304 0 2.387 0.90875 2.506 2.0699l-0.102 5.2842c0.136 1.3295-0.778 2.3729-2.268 2.3729l-20.432-0.5217-15.1-0.1683c-1.354 0-2.454-0.9761-2.505-2.1877z" fill="#5A35D6"/>
<path d="m170.94 1.3076 5.214-0.87509c1.337-0.21877 2.522 0.30292 2.573 1.1444l0.914 9.9458 1.185 9.8448c0.085 0.7237-0.711 1.4641-1.862 1.6829l-5.265 0.7068c-1.32 0.2693-2.42-0.0841-2.539-0.9256l-1.134-11.41-1.049-8.3976c-0.102-0.75729 0.778-1.4978 1.963-1.6997v-0.01683z" fill="#00A69B"/>
<path d="m175.47 0.96989 2.573-0.42072c0.661-0.1178 1.287 0.52169 1.338 1.3631l0.897 9.929 1.033 9.8617c0.084 0.7236-0.288 1.3799-0.864 1.5146l-2.607 0.2356c-0.643 0.1514-1.218-0.303-1.32-1.1276l-1.066-11.41-0.898-8.4144c-0.084-0.75729 0.322-1.4304 0.914-1.5314z" fill="#0B343A"/>
<path d="m169.46 1.6773 1.388-0.28609c0.356-0.06732 0.728 0.58901 0.813 1.4136l1.016 9.9122 1.083 9.8617c0.085 0.7236-0.085 1.3631-0.389 1.4641l-1.422 0.101c-0.356 0.1178-0.694-0.3535-0.779-1.1949l-1.185-11.393-0.931-8.4144c-0.084-0.75729 0.102-1.3968 0.423-1.4641h-0.017z" fill="#0B343A"/>
<path d="m195.12 70.254-56.725-0.0841c-2.048 0-3.64-2.0195-3.64-4.0557v-12.436c0-2.0363 1.676-3.6855 3.708-3.6855h56.267c2.049 0 3.708 1.666 3.708 3.6855v12.436c0 2.0362-1.287 4.1398-3.335 4.1398h0.017z" fill="#A9C630"/>
<path d="m168.86 23.42-25.443-0.1851c-1.151 0-2.031-0.6058-2.031-1.767v-6.3108c0-1.1444 0.948-2.0868 2.099-2.0868h24.715c1.151 0 2.099 0.9424 2.099 2.0868l0.795 6.3781c0 1.1444-1.083 1.8848-2.251 1.8848h0.017z" fill="#A9C630"/>
<path d="m184.86 49.707-43.284-0.4881c-2.048 0-3.707-1.666-3.707-3.6855v-5.8228c0-2.0362 1.676-3.6855 3.707-3.6855l42.658-0.6899c2.048 0 4.13 1.2453 4.046 4.3923v5.8227c0 2.0363-1.371 4.1736-3.42 4.1736v-0.0168z" fill="#5A35D6" opacity=".39"/>
<path d="m167.61 13.323-23.191-0.0841c-0.898 0-1.93-1.279-1.93-2.171v-5.301c0-0.89192 0.762-2.5411 1.676-2.5411l22.92 0.08414c0.897 0 2.878 1.3463 2.878 2.2382l-0.187 5.9911c0 0.8919-1.252 1.7838-2.149 1.7838h-0.017z" fill="#0B343A"/>
<path d="m179.5 23.571h-39.865c-2.047 0-3.707 1.6501-3.707 3.6855v4.2913c0 2.0355 1.66 3.6855 3.707 3.6855h39.865c2.048 0 3.707-1.65 3.707-3.6855v-4.2913c0-2.0354-1.659-3.6855-3.707-3.6855z" fill="#1C1B21" opacity=".39"/>
<path d="m105.15 59.349 29.641 1.5651 63.36-0.3198" stroke="#0B343A" stroke-miterlimit="10" stroke-width="1.6928"/>
<path d="m172.99 42.924 15.066-0.1851" stroke="#0B343A" stroke-miterlimit="10" stroke-width="1.6928"/>
<path d="m114.92 41.797 24.918 1.5651 23.36-0.303" stroke="#0B343A" stroke-miterlimit="10" stroke-width="1.6928"/>
<path d="m123.43 18.608h18.925l28.388-0.8078" stroke="#0B343A" stroke-miterlimit="10" stroke-width=".84639"/>
<path d="m128.8 7.635 16.064 0.62267 24.918 0.31974" stroke="#0B343A" stroke-miterlimit="10" stroke-width=".84639"/>
<path d="m119.01 28.94 20.821 1.2622 43.809-0.3198" stroke="#E8FAE9" stroke-miterlimit="10" stroke-width="1.2696"/>
<path d="m174.92 65.425-6.991 0.1851c-1.016 0-1.862-0.69-1.862-1.5315v-1.3631c0-0.8414 0.829-1.5314 1.862-1.5314l6.991-0.1851c1.016 0 1.862 0.69 1.862 1.5314v1.3631c0 0.8415-0.829 1.5315-1.862 1.5315z" stroke="#0B343A" stroke-miterlimit="10" stroke-width="1.6928"/>
<path d="m161.23 20.576-4.519 0.2356c-0.661 0.0168-1.219-0.3534-1.219-0.8246v-0.7573c-0.034-0.4712 0.491-0.8583 1.151-0.8919l4.52-0.2356c0.66-0.0169 1.218 0.3534 1.218 0.8246v0.7573c0.034 0.4712-0.491 0.8582-1.151 0.8919z" stroke="#0B343A" stroke-miterlimit="10" stroke-width=".76175"/>
<path d="m171.86 45.045-6.991 0.1851c-1.016 0-1.862-0.6899-1.862-1.5314v-1.3631c0-0.8414 0.829-1.5314 1.862-1.5314l6.991-0.1851c1.015 0 1.862 0.6899 1.862 1.5314v1.3631c0 0.8414-0.83 1.5314-1.862 1.5314z" stroke="#0B343A" stroke-miterlimit="10" stroke-width="1.6928"/>
<path d="m185.5 41.023h-3.317c-0.187 0-0.339 0.1507-0.339 0.3366v2.6589c0 0.1859 0.152 0.3366 0.339 0.3366h3.317c0.187 0 0.339-0.1507 0.339-0.3366v-2.6589c0-0.1859-0.152-0.3366-0.339-0.3366z" fill="#EBEFD5"/>
<path d="m192.24 58.744h-1.676c-0.991 0-1.794 0.7986-1.794 1.7838v0.8078c0 0.9852 0.803 1.7839 1.794 1.7839h1.676c0.991 0 1.795-0.7987 1.795-1.7839v-0.8078c0-0.9852-0.804-1.7838-1.795-1.7838z" fill="#0B343A"/>
<path d="m148.11 59.012h-1.676c-0.991 0-1.794 0.7986-1.794 1.7838v0.8078c0 0.9852 0.803 1.7838 1.794 1.7838h1.676c0.991 0 1.794-0.7986 1.794-1.7838v-0.8078c0-0.9852-0.803-1.7838-1.794-1.7838z" fill="#0B343A"/>
<path d="m150.72 41.477h-3.317c-0.187 0-0.339 0.1507-0.339 0.3365v2.659c0 0.1859 0.152 0.3366 0.339 0.3366h3.317c0.187 0 0.339-0.1507 0.339-0.3366v-2.659c0-0.1858-0.152-0.3365-0.339-0.3365z" fill="#EBEFD5"/>
<path d="m168.7 28.166h-6.195c-0.187 0-0.339 0.1507-0.339 0.3365v3.0797c0 0.1859 0.152 0.3366 0.339 0.3366h6.195c0.187 0 0.339-0.1507 0.339-0.3366v-3.0797c0-0.1858-0.152-0.3365-0.339-0.3365z" fill="#E8FAE9"/>
<path d="m158.54 8.3923h-2.776c-0.187 0-0.339 0.15069-0.339 0.33658v1.2117c0 0.18592 0.152 0.33662 0.339 0.33662h2.776c0.187 0 0.338-0.1507 0.338-0.33662v-1.2117c0-0.18589-0.151-0.33658-0.338-0.33658z" fill="#E8FAE9"/>
<path d="m149.99 7.584h-2.777c-0.187 0-0.338 0.1507-0.338 0.33658v1.2117c0 0.18589 0.151 0.33658 0.338 0.33658h2.777c0.187 0 0.338-0.15069 0.338-0.33658v-1.2117c0-0.18588-0.151-0.33658-0.338-0.33658z" fill="#E8FAE9"/>
<path d="m166.71 7.4165h-2.776c-0.187 0-0.339 0.15069-0.339 0.33658v1.2117c0 0.18589 0.152 0.33658 0.339 0.33658h2.776c0.187 0 0.339-0.15069 0.339-0.33658v-1.2117c0-0.18589-0.152-0.33658-0.339-0.33658z" fill="#E8FAE9"/>
<path d="m172.82 1.1728 2.607 22.164" stroke="#E8FAE9" stroke-miterlimit="10" stroke-width="1.2696"/>
</g>
<defs>
<clipPath id="a">
<rect transform="translate(.47974)" width="242.37" height="170" fill="#fff"/>
</clipPath>
</defs>
</svg>
